<svg xmlns="http://www.w3.org/2000/svg" height="20" viewBox="0 -960 960 960" width="20"><path d="M583.918-243.231q-35.888 0-60.999-24.885-25.11-24.885-25.11-60.773 0-35.889 24.885-60.999 24.885-25.111 60.774-25.111 35.888 0 60.998 24.885 25.111 24.886 25.111 60.774 0 35.888-24.885 60.999-24.886 25.11-60.774 25.11Zm-352.47 119.153q-25.046 0-42.612-17.916-17.565-17.916-17.565-42.262v-497.103q0-24.347 17.565-42.262 17.566-17.916 42.703-17.916h91.424v-100.616h49.499v100.616h216.614v-100.616h47.961v100.616h91.424q25.137 0 42.703 17.916 17.565 17.915 17.565 42.262v497.103q0 24.346-17.565 42.262-17.566 17.916-42.612 17.916H231.448Zm.091-47.96h496.922q4.615 0 8.462-3.847 3.846-3.846 3.846-8.462v-329.729H219.231v329.729q0 4.616 3.846 8.462 3.847 3.847 8.462 3.847Zm-12.308-389.998h521.538v-119.232q0-4.616-3.846-8.463-3.847-3.846-8.462-3.846H231.539q-4.615 0-8.462 3.846-3.846 3.847-3.846 8.463v119.232Zm0 0v-131.541 131.541Z"/></svg>