<svg xmlns="http://www.w3.org/2000/svg" height="40" viewBox="0 -960 960 960" width="40"><path d="M595.798-232.154q-37.768 0-63.507-25.89-25.739-25.889-25.739-63.658 0-37.768 25.89-63.507 25.89-25.739 63.658-25.739 37.769 0 63.507 25.89 25.739 25.89 25.739 63.658 0 37.769-25.89 63.507-25.889 25.739-63.658 25.739ZM204.371-104.745q-24.514 0-42.307-17.793-17.794-17.793-17.794-42.308v-561.001q0-24.514 17.794-42.307 17.793-17.794 42.398-17.794h70.065v-74.872h51.73v74.872h309.025v-74.872h50.447v74.872h69.809q24.605 0 42.398 17.794 17.794 17.793 17.794 42.307v561.001q0 24.515-17.794 42.308-17.793 17.793-42.307 17.793H204.371Zm.091-47.883h551.076q4.615 0 8.462-3.846 3.846-3.847 3.846-8.463v-386.678H192.154v386.678q0 4.616 3.846 8.463 3.847 3.846 8.462 3.846Zm-12.308-446.87h575.692v-126.258q0-4.615-3.846-8.462-3.847-3.846-8.462-3.846H204.462q-4.615 0-8.462 3.846-3.846 3.847-3.846 8.462v126.258Zm0 0v-138.566 138.566Z"/></svg>