<svg width="36" height="32" viewBox="0 0 36 32" fill="none" xmlns="http://www.w3.org/2000/svg">
<path d="M21.9375 0H36V17.1775C36 21.7951 35.0625 25.3045 33.1875 27.7056C31.125 30.1991 27.6563 31.6306 22.7813 32V23.8268C24.4688 23.8268 25.875 23.1342 27 21.7489C27.5625 21.0101 27.8438 19.5786 27.8438 17.4545V14.8225H21.9375V0ZM0 0H14.0625V17.1775C14.0625 21.7951 13.2187 25.1659 11.5313 27.29C9.28125 30.0606 5.71875 31.6306 0.84375 32V23.8268C3.75 23.8268 5.39062 22.3954 5.76562 19.5325C5.85938 19.1631 5.90625 18.4704 5.90625 17.4545V14.8225H0V0Z" fill="#111111"/>
</svg>
