<svg width="28" height="28" viewBox="0 0 28 28" fill="none" xmlns="http://www.w3.org/2000/svg">
<path fill-rule="evenodd" clip-rule="evenodd" d="M14 28C21.732 28 28 21.732 28 14C28 6.26801 21.732 0 14 0C6.26801 0 0 6.26801 0 14C0 21.732 6.26801 28 14 28Z" fill="url(#paint0_linear_413_123323)"/>
<path fill-rule="evenodd" clip-rule="evenodd" d="M11.4331 20.4173C10.9795 20.4173 11.0566 20.2461 10.9002 19.8142L9.56641 15.4247L19.8331 9.33398" fill="#C8DAEA"/>
<path fill-rule="evenodd" clip-rule="evenodd" d="M11.4336 20.4168C11.7836 20.4168 11.9382 20.2568 12.1336 20.0668L14.0003 18.2517L11.6718 16.8477" fill="#A9C9DD"/>
<path fill-rule="evenodd" clip-rule="evenodd" d="M11.6712 16.8487L17.3132 21.0171C17.957 21.3723 18.4217 21.1884 18.582 20.4193L20.8786 9.59697C21.1138 8.65428 20.5193 8.22672 19.9034 8.50635L6.41786 13.7063C5.49735 14.0755 5.50272 14.5891 6.25007 14.8179L9.71076 15.898L17.7226 10.8434C18.1008 10.6141 18.448 10.7374 18.163 10.9903" fill="url(#paint1_linear_413_123323)"/>
<defs>
<linearGradient id="paint0_linear_413_123323" x1="10.5014" y1="1.1676" x2="3.5014" y2="17.5" gradientUnits="userSpaceOnUse">
<stop stop-color="#37AEE2"/>
<stop offset="1" stop-color="#1E96C8"/>
</linearGradient>
<linearGradient id="paint1_linear_413_123323" x1="12.2473" y1="14.8608" x2="13.7432" y2="19.6995" gradientUnits="userSpaceOnUse">
<stop stop-color="#EFF7FC"/>
<stop offset="1" stop-color="white"/>
</linearGradient>
</defs>
</svg>
